<?xml version="1.0" encoding="iso-8859-1"?>
<!-- Generator: Adobe Illustrator 19.0.0, SVG Export Plug-In . SVG Version: 6.00 Build 0)  -->
<svg version="1.1" id="Capa_1" xmlns="http://www.w3.org/2000/svg" xmlns:xlink="http://www.w3.org/1999/xlink" x="0px" y="0px"
	 viewBox="0 0 512.012 512.012" style="enable-background:new 0 0 512.012 512.012;" xml:space="preserve">
<g>
	<g>
		<path d="M439.487,128.001c-18.824,0-34.133,15.309-34.133,34.133s15.309,34.133,34.133,34.133
			c18.824,0,34.133-15.309,34.133-34.133S458.312,128.001,439.487,128.001z"/>
	</g>
</g>
<g>
	<g>
		<path d="M439.487,247.466c-18.824,0-34.133,15.309-34.133,34.133s15.309,34.133,34.133,34.133
			c18.824,0,34.133-15.309,34.133-34.133C473.62,262.774,458.303,247.466,439.487,247.466z"/>
	</g>
</g>
<g>
	<g>
		<path d="M292.222,54.838c-5.461-5.948-11.417-11.665-17.698-17.007c-31.317-26.658-74-40.644-114.166-37.358
			c-33.604,2.731-62.241,16.998-82.823,41.258C50.98,73.039,28.034,124.306,43.274,174.277
			c13.397,43.92,59.203,77.626,108.926,80.152c19.473,0.964,36.189-3.191,48.4-12.074c11.204-8.149,18.824-21.256,20.906-35.959
			c2.074-14.634-1.579-29.243-10.018-40.097c-9.122-11.733-22.835-19.498-37.623-21.299c-13.474-1.672-26.496,1.869-36.667,9.873
			c-1.365,1.075-2.697,2.227-4.045,3.388c-3.405,2.952-6.622,5.743-9.549,6.093c-3.789,0.461-6.596-0.495-9.096-3.089
			c-7.774-8.089-9.489-28.62-7.697-39.705c4.753-29.448,34.141-61.251,66.388-59.493c23.279,1.195,48.221,14.805,68.445,37.358
			c88.907,99.147,6.007,247.172-79.188,353.897c-10.487,13.15-22.237,27.315-36.974,44.603c0,0-0.009,0.009-0.009,0.017
			c-3.055,3.584-2.628,8.968,0.956,12.032c1.604,1.365,3.567,2.039,5.53,2.039c2.415,0,4.813-1.016,6.502-2.995
			c0-0.009,0.009-0.017,0.017-0.026c3.729-4.335,24.635-18.457,38.476-27.801c11.417-7.714,21.282-14.37,25.804-18.09
			c21.777-17.92,42.248-37.316,60.825-57.65C347.849,313.214,382.75,152.944,292.222,54.838z"/>
	</g>
</g>
<g>
</g>
<g>
</g>
<g>
</g>
<g>
</g>
<g>
</g>
<g>
</g>
<g>
</g>
<g>
</g>
<g>
</g>
<g>
</g>
<g>
</g>
<g>
</g>
<g>
</g>
<g>
</g>
<g>
</g>
</svg>
